<svg width="180" height="60" viewBox="0 0 180 60" fill="none" xmlns="http://www.w3.org/2000/svg">
  <!-- Cloud Shape -->
  <path d="M25 25C25 22.2386 27.2386 20 30 20C30.7403 20 31.4463 20.1402 32.0922 20.3949C32.8987 17.5183 35.5891 15.5 38.75 15.5C42.6142 15.5 45.75 18.6358 45.75 22.5C45.75 22.8354 45.7274 23.1656 45.6838 23.4891C47.9562 24.1787 49.625 26.3213 49.625 28.875C49.625 32.0486 47.0486 34.625 43.875 34.625H27.5C24.3264 34.625 21.75 32.0486 21.75 28.875C21.75 26.8177 22.8894 25.0203 24.5625 24.1016C24.6884 23.1925 24.9843 22.3325 25.4203 21.5625" fill="#C8A96A"/>
  
  <!-- Number 7 -->
  <path d="M50 20H62L54 34.625H58L50 48.625V34.625" stroke="#121416" stroke-width="2.5" stroke-linecap="round" stroke-linejoin="round"/>
  
  <!-- Text: CLOUD SEVEN REALTY -->
  <text x="75" y="28" font-family="Playfair Display, serif" font-size="18" font-weight="700" fill="#121416">CLOUD SEVEN</text>
  <text x="75" y="44" font-family="Inter, sans-serif" font-size="10" font-weight="400" letter-spacing="1.5" fill="#C8A96A">REALTY</text>
</svg>
