<?xml version="1.0" encoding="UTF-8"?>
<svg version="1.1" xmlns="http://www.w3.org/2000/svg" width="2510" height="1476">
<path d="M0 0 C828.3 0 1656.6 0 2510 0 C2510 487.08 2510 974.16 2510 1476 C1681.7 1476 853.4 1476 0 1476 C0 988.92 0 501.84 0 0 Z " fill="#000000" transform="translate(0,0)"/>
<path d="M0 0 C1.42881317 0.27284824 2.85846582 0.5413505 4.2890625 0.8046875 C39.88064049 7.76890847 74.43065018 24.99136407 103 47 C103.81210938 47.62003906 104.62421875 48.24007812 105.4609375 48.87890625 C121.04332581 61.04496653 136.00044869 75.26768924 148 91 C148.51530273 91.66596191 149.03060547 92.33192383 149.56152344 93.01806641 C158.40156584 104.48289036 166.14641114 116.2483573 173 129 C173.36818848 129.68126953 173.73637695 130.36253906 174.11572266 131.06445312 C189.03382588 158.9628866 201 192.10029808 201 224 C102.33 224 3.66 224 -98 224 C-98 240.5 -98 257 -98 274 C0.67 274 99.34 274 201 274 C201 285.27259404 201 285.27259404 200.15234375 289.6015625 C199.96309326 290.57391846 199.77384277 291.54627441 199.57885742 292.5480957 C199.36720947 293.56347412 199.15556152 294.57885254 198.9375 295.625 C198.71489502 296.70676514 198.49229004 297.78853027 198.26293945 298.90307617 C193.01762135 323.56304592 184.73615861 346.71116097 173 369 C172.51015625 369.9590625 172.0203125 370.918125 171.515625 371.90625 C158.4109811 396.93759228 138.80677587 421.93941528 117 440 C116.07058594 440.81726563 115.14117188 441.63453125 114.18359375 442.4765625 C101.53592082 453.55493201 87.5897688 462.68951322 73 471 C72.0406958 471.55252441 72.0406958 471.55252441 71.06201172 472.11621094 C14.89361506 504.18462458 -54.83932604 511.5845011 -117 495 C-143.68318507 487.49863277 -168.93156259 476.42352934 -192 461 C-192.93972656 460.37230713 -192.93972656 460.37230713 -193.8984375 459.73193359 C-246.63276269 424.08898121 -284.1361962 368.75636213 -299 307 C-299.18546387 306.23042969 -299.37092773 305.46085937 -299.56201172 304.66796875 C-306.89188427 273.37677484 -307.80396041 238.61547967 -302 207 C-301.729835 205.37770958 -301.4603021 203.75531377 -301.19140625 202.1328125 C-292.95656376 154.95845663 -270.13371665 113.71582896 -239 78 C-238.56123535 77.49662109 -238.1224707 76.99324219 -237.67041016 76.47460938 C-233.06077168 71.21924268 -228.39352185 66.22205014 -223.03515625 61.7265625 C-220.76738117 59.80265351 -218.61248552 57.77807546 -216.4375 55.75 C-195.41475441 36.86786832 -169.48081151 21.69013923 -143 12 C-142.35949707 11.75830078 -141.71899414 11.51660156 -141.05908203 11.26757812 C-128.93673677 6.69310822 -116.61002498 2.97609381 -104 0 C-103.11521973 -0.21462891 -102.23043945 -0.42925781 -101.31884766 -0.65039062 C-69.68755505 -7.92726276 -31.57051128 -7.10304276 0 0 Z " fill="#FEFEFE" transform="translate(1038,461)"/>
<path d="M0 0 C1.12870514 0.00425995 2.25741028 0.0085199 3.4203186 0.01290894 C21.51780972 0.10756994 38.67790394 1.22887169 56.3125 5.5625 C57.92584229 5.94801025 57.92584229 5.94801025 59.57177734 6.34130859 C80.98891191 11.57903749 101.92646318 19.01451285 121.3125 29.5625 C121.96089844 29.90748535 122.60929687 30.2524707 123.27734375 30.60791016 C143.37695792 41.31888876 160.87968298 54.84859099 177.3125 70.5625 C177.95944824 71.1807666 178.60639648 71.7990332 179.27294922 72.43603516 C188.44260705 81.25817417 196.81613774 90.27913328 204.3125 100.5625 C204.7967041 101.21831055 205.2809082 101.87412109 205.77978516 102.54980469 C244.25343073 154.84432005 263.02970923 221.47777542 254 286.25 C253.77625604 287.68835401 253.54684947 289.12583583 253.3125 290.5625 C253.11914062 291.78453125 253.11914062 291.78453125 252.921875 293.03125 C245.11003928 341.05957331 223.88453966 388.03152845 190.3125 423.5625 C189.14020322 424.91179564 187.97334179 426.26583672 186.8125 427.625 C180.52315295 434.82942525 173.65473642 441.44197339 166.3125 447.5625 C165.80509277 447.98901855 165.29768555 448.41553711 164.77490234 448.85498047 C139.57130419 469.93395877 110.51643893 485.46411854 79.3125 495.5625 C78.06847412 495.96879639 78.06847412 495.96879639 76.79931641 496.38330078 C51.11333098 504.69096267 26.0356839 507.73017386 -0.875 507.75 C-2.10065674 507.75163147 -2.10065674 507.75163147 -3.35107422 507.7532959 C-5.68596802 507.75294348 -8.02061641 507.74383874 -10.35546875 507.73046875 C-11.06595871 507.72925522 -11.77644867 507.72804169 -12.50846863 507.72679138 C-17.45394264 507.67927868 -17.45394264 507.67927868 -19.6875 506.5625 C-18.28157267 497.44468839 -15.27671452 488.88413188 -12.3125 480.1875 C-11.77409159 478.59266653 -11.23634426 476.99760975 -10.69921875 475.40234375 C-9.58490486 472.09451027 -8.46777806 468.78764716 -7.34863281 465.48144531 C-5.01869479 458.59120993 -2.72358778 451.68941985 -0.42797852 444.78768921 C0.5690939 441.79141755 1.5683023 438.7958599 2.56744385 435.80027771 C4.5525483 429.84838418 6.53486842 423.89558317 8.51118469 417.94076538 C9.73554354 414.25181793 10.9611878 410.56329852 12.1875 406.875 C12.43210968 406.13922729 12.67671936 405.40345459 12.92874146 404.64538574 C16.6786079 393.37505873 20.50587722 382.13259198 24.36242676 370.89837646 C29.34320707 356.3872556 34.21861546 341.84850072 38.9375 327.25 C39.2060379 326.41936035 39.47457581 325.5887207 39.75125122 324.73291016 C40.01904388 323.90452637 40.28683655 323.07614258 40.56274414 322.22265625 C49.3556076 295.02548706 58.50319238 267.95051025 67.76596069 240.91009521 C71.67178098 229.47780615 75.49163005 218.02510986 79.3125 206.5625 C-28.5975 206.5625 -136.5075 206.5625 -247.6875 206.5625 C-244.83853068 183.77074546 -236.95183836 162.04310018 -226.6875 141.5625 C-225.87732422 139.85320312 -225.87732422 139.85320312 -225.05078125 138.109375 C-218.39943068 124.27952719 -210.15359832 111.62442052 -200.6875 99.5625 C-200.05457031 98.73621094 -199.42164063 97.90992188 -198.76953125 97.05859375 C-193.1533656 89.84442633 -186.99386294 83.17112057 -180.6875 76.5625 C-180.13255859 75.97887695 -179.57761719 75.39525391 -179.00585938 74.79394531 C-171.32682553 66.76825794 -163.37136157 59.51599648 -154.45849609 52.88476562 C-152.68401866 51.55990075 -150.92940255 50.21168213 -149.17578125 48.859375 C-106.66344015 16.44914849 -53.24561172 -0.43398296 0 0 Z " fill="#FEFEFE" transform="translate(1521.6875,456.4375)"/>
<path d="M0 0 C0 2 0 2 -2.375 4.4375 C-3.674375 5.7059375 -3.674375 5.7059375 -5 7 C-6.97340108 9.74262618 -6.97340108 9.74262618 -7.8125 12 C-9.38820358 14.65381656 -11.32800074 15.53040041 -14 17 C-14.66 17.66 -15.32 18.32 -16 19 C-16.66 18.67 -17.32 18.34 -18 18 C-18 18.66 -18 19.32 -18 20 C-18.66 20 -19.32 20 -20 20 C-20 20.66 -20 21.32 -20 22 C-21.98 22.99 -21.98 22.99 -24 24 C-22.46347997 20.36120325 -20.27579241 18.01785354 -17.5 15.234375 C-16.1696875 13.90019531 -16.1696875 13.90019531 -14.8125 12.5390625 C-13.4203125 11.15847656 -13.4203125 11.15847656 -12 9.75 C-11.071875 8.81414063 -10.14375 7.87828125 -9.1875 6.9140625 C-8.300625 6.02976562 -7.41375 5.14546875 -6.5 4.234375 C-5.6853125 3.42194336 -4.870625 2.60951172 -4.03125 1.77246094 C-2 0 -2 0 0 0 Z " fill="#F9F9F9" transform="translate(1357,519)"/>
<path d="M0 0 C0 2 0 2 -2.1875 4.375 C-4.70610834 6.72570111 -7.27358589 8.89676626 -10 11 C-10 8 -10 8 -8.3203125 5.95703125 C-7.23363281 4.89548828 -7.23363281 4.89548828 -6.125 3.8125 C-5.40570312 3.09707031 -4.68640625 2.38164063 -3.9453125 1.64453125 C-2 0 -2 0 0 0 Z " fill="#EBEBEB" transform="translate(1357,519)"/>
<path d="M0 0 C0.66 0.33 1.32 0.66 2 1 C0.63016497 4.16115776 0.0109362 4.9927092 -3 7 C-4.32 6.67 -5.64 6.34 -7 6 C-4.69 4.02 -2.38 2.04 0 0 Z " fill="#EDEDED" transform="translate(831,509)"/>
<path d="M0 0 C0.99 0.33 1.98 0.66 3 1 C1.02 1.99 1.02 1.99 -1 3 C-1 3.66 -1 4.32 -1 5 C-1.66 5 -2.32 5 -3 5 C-3 5.66 -3 6.32 -3 7 C-4.98 7.99 -4.98 7.99 -7 9 C-5.44499019 5.18315774 -2.96404505 2.80804268 0 0 Z " fill="#E8E8E8" transform="translate(1340,534)"/>
</svg>
